<svg xmlns="http://www.w3.org/2000/svg" xmlns:xlink="http://www.w3.org/1999/xlink" width="1024" zoomAndPan="magnify" viewBox="0 0 768 767.999994" height="1024" preserveAspectRatio="xMidYMid meet" version="1.0"><defs><g/><clipPath id="968689f890"><path d="M 241.640625 241.640625 L 526.359375 241.640625 L 526.359375 526.359375 L 241.640625 526.359375 Z M 241.640625 241.640625 " clip-rule="nonzero"/></clipPath><clipPath id="13295e65e2"><path d="M 384 241.640625 C 305.375 241.640625 241.640625 305.375 241.640625 384 C 241.640625 462.625 305.375 526.359375 384 526.359375 C 462.625 526.359375 526.359375 462.625 526.359375 384 C 526.359375 305.375 462.625 241.640625 384 241.640625 Z M 384 241.640625 " clip-rule="nonzero"/></clipPath><clipPath id="edd223e516"><path d="M 0.640625 0.640625 L 285.359375 0.640625 L 285.359375 285.359375 L 0.640625 285.359375 Z M 0.640625 0.640625 " clip-rule="nonzero"/></clipPath><clipPath id="608844e9c7"><path d="M 143 0.640625 C 64.375 0.640625 0.640625 64.375 0.640625 143 C 0.640625 221.625 64.375 285.359375 143 285.359375 C 221.625 285.359375 285.359375 221.625 285.359375 143 C 285.359375 64.375 221.625 0.640625 143 0.640625 Z M 143 0.640625 " clip-rule="nonzero"/></clipPath><linearGradient x1="-0.000000000000028422" gradientTransform="matrix(1.112195, 0, 0, 1.112195, 0.639019, 0.639036)" y1="128" x2="255.999974" gradientUnits="userSpaceOnUse" y2="128" id="b68bb69e4d"><stop stop-opacity="1" stop-color="rgb(30%, 50%, 85%)" offset="0"/><stop stop-opacity="1" stop-color="rgb(17.042542%, 46.379089%, 94.113159%)" offset="0.03125"/><stop stop-opacity="1" stop-color="rgb(17.410278%, 46.600342%, 94.100952%)" offset="0.0625"/><stop stop-opacity="1" stop-color="rgb(17.778015%, 46.820068%, 94.088745%)" offset="0.09375"/><stop stop-opacity="1" stop-color="rgb(18.145752%, 47.041321%, 94.076538%)" offset="0.125"/><stop stop-opacity="1" stop-color="rgb(18.513489%, 47.261047%, 94.064331%)" offset="0.15625"/><stop stop-opacity="1" stop-color="rgb(18.881226%, 47.4823%, 94.052124%)" offset="0.1875"/><stop stop-opacity="1" stop-color="rgb(19.248962%, 47.703552%, 94.039917%)" offset="0.21875"/><stop stop-opacity="1" stop-color="rgb(19.616699%, 47.923279%, 94.02771%)" offset="0.25"/><stop stop-opacity="1" stop-color="rgb(19.984436%, 48.144531%, 94.015503%)" offset="0.28125"/><stop stop-opacity="1" stop-color="rgb(20.352173%, 48.364258%, 94.003296%)" offset="0.3125"/><stop stop-opacity="1" stop-color="rgb(20.71991%, 48.58551%, 93.991089%)" offset="0.34375"/><stop stop-opacity="1" stop-color="rgb(21.087646%, 48.805237%, 93.978882%)" offset="0.375"/><stop stop-opacity="1" stop-color="rgb(21.456909%, 49.026489%, 93.966675%)" offset="0.40625"/><stop stop-opacity="1" stop-color="rgb(21.824646%, 49.247742%, 93.954468%)" offset="0.4375"/><stop stop-opacity="1" stop-color="rgb(22.192383%, 49.467468%, 93.942261%)" offset="0.46875"/><stop stop-opacity="1" stop-color="rgb(22.56012%, 49.688721%, 93.930054%)" offset="0.5"/><stop stop-opacity="1" stop-color="rgb(22.927856%, 49.908447%, 93.917847%)" offset="0.53125"/><stop stop-opacity="1" stop-color="rgb(23.295593%, 50.1297%, 93.90564%)" offset="0.5625"/><stop stop-opacity="1" stop-color="rgb(23.66333%, 50.350952%, 93.893433%)" offset="0.59375"/><stop stop-opacity="1" stop-color="rgb(24.031067%, 50.570679%, 93.881226%)" offset="0.625"/><stop stop-opacity="1" stop-color="rgb(24.398804%, 50.791931%, 93.869019%)" offset="0.65625"/><stop stop-opacity="1" stop-color="rgb(24.766541%, 51.011658%, 93.856812%)" offset="0.6875"/><stop stop-opacity="1" stop-color="rgb(25.134277%, 51.23291%, 93.844604%)" offset="0.71875"/><stop stop-opacity="1" stop-color="rgb(25.502014%, 51.454163%, 93.832397%)" offset="0.75"/><stop stop-opacity="1" stop-color="rgb(25.869751%, 51.673889%, 93.82019%)" offset="0.78125"/><stop stop-opacity="1" stop-color="rgb(26.237488%, 51.895142%, 93.807983%)" offset="0.8125"/><stop stop-opacity="1" stop-color="rgb(26.605225%, 52.114868%, 93.795776%)" offset="0.84375"/><stop stop-opacity="1" stop-color="rgb(26.972961%, 52.336121%, 93.783569%)" offset="0.875"/><stop stop-opacity="1" stop-color="rgb(27.340698%, 52.555847%, 93.771362%)" offset="0.90625"/><stop stop-opacity="1" stop-color="rgb(27.708435%, 52.7771%, 93.759155%)" offset="0.9375"/><stop stop-opacity="1" stop-color="rgb(28.076172%, 52.998352%, 93.746948%)" offset="0.96875"/><stop stop-opacity="1" stop-color="rgb(35%, 55%, 90%)" offset="1"/></linearGradient><clipPath id="f968cc34f8"><rect x="0" width="286" y="0" height="286"/></clipPath></defs><g fill="#4a7cff" fill-opacity="1"><g transform="translate(74.416991, 686.6181)"><g><path d="M 2.625 -304.21875 C 2.625 -347.34375 10.632812 -387.695312 26.65625 -425.28125 C 42.6875 -462.875 63.816406 -495.648438 90.046875 -523.609375 C 116.847656 -551.003906 148.457031 -573.003906 184.875 -589.609375 C 221.300781 -606.222656 260.207031 -614.53125 301.59375 -614.53125 C 348.207031 -614.53125 390.890625 -605.347656 429.640625 -586.984375 C 468.398438 -568.628906 501.332031 -542.550781 528.4375 -508.75 C 555.539062 -474.957031 574.914062 -435.039062 586.5625 -389 L 499.15625 -389 C 482.832031 -435.039062 457.039062 -469.566406 421.78125 -492.578125 C 386.53125 -515.597656 346.46875 -527.109375 301.59375 -527.109375 C 272.445312 -527.109375 244.90625 -521.28125 218.96875 -509.625 C 193.039062 -497.976562 170.460938 -481.957031 151.234375 -461.5625 C 132.003906 -441.75 116.707031 -418.4375 105.34375 -391.625 C 93.976562 -364.820312 88.296875 -335.6875 88.296875 -304.21875 C 88.296875 -273.90625 93.976562 -245.488281 105.34375 -218.96875 C 116.707031 -192.457031 132.003906 -169.003906 151.234375 -148.609375 C 170.460938 -128.796875 193.039062 -112.914062 218.96875 -100.96875 C 244.90625 -89.019531 272.445312 -83.046875 301.59375 -83.046875 C 348.207031 -83.046875 389.726562 -95.863281 426.15625 -121.5 C 462.582031 -147.144531 488.660156 -182.988281 504.390625 -229.03125 L 590.9375 -229.03125 C 579.28125 -182.988281 559.753906 -142.335938 532.359375 -107.078125 C 504.972656 -71.828125 471.609375 -44.4375 432.265625 -24.90625 C 392.929688 -5.382812 349.375 4.375 301.59375 4.375 C 260.207031 4.375 221.300781 -3.78125 184.875 -20.09375 C 148.457031 -36.414062 116.847656 -58.566406 90.046875 -86.546875 C 63.816406 -114.515625 42.6875 -147.144531 26.65625 -184.4375 C 10.632812 -221.738281 2.625 -261.664062 2.625 -304.21875 Z M 2.625 -304.21875 "/></g></g></g><g clip-path="url(#968689f890)"><g clip-path="url(#13295e65e2)"><g transform="matrix(1, 0, 0, 1, 241, 241)"><g clip-path="url(#f968cc34f8)"><g clip-path="url(#edd223e516)"><g clip-path="url(#608844e9c7)"><path fill="url(#b68bb69e4d)" d="M 0.640625 0.640625 L 0.640625 285.359375 L 285.359375 285.359375 L 285.359375 0.640625 Z M 0.640625 0.640625 " fill-rule="nonzero"/></g></g></g></g></g></g></svg>

